<?xml version="1.0" encoding="utf-8"?>
<!-- Generator: Adobe Illustrator 26.3.1, SVG Export Plug-In . SVG Version: 6.00 Build 0)  -->
<svg version="1.1" id="레이어_1" xmlns="http://www.w3.org/2000/svg" xmlns:xlink="http://www.w3.org/1999/xlink" x="0px"
	 y="0px" viewBox="0 0 1920 1080" style="enable-background:new 0 0 1920 1080;" xml:space="preserve">
<style type="text/css">
	.st0{fill:#F3FEFF;}
	.st1{fill:#5B5B59;}
	.st2{opacity:0.82;fill:#FFF78F;enable-background:new    ;}
	.st3{opacity:0.82;fill:#5B5B59;enable-background:new    ;}
	.st4{opacity:0.82;fill:#C9C9C9;enable-background:new    ;}
	.st5{opacity:0.88;fill:#858AED;enable-background:new    ;}
	.st6{fill:#F7F3BF;}
	.st7{fill:#FCF79D;}
	.st8{opacity:0.82;fill:#44448B;stroke:#44448B;stroke-miterlimit:10;enable-background:new    ;}
	.st9{opacity:0.86;fill:none;stroke:#FEFFC0;stroke-width:8;stroke-miterlimit:10;enable-background:new    ;}
	.st10{opacity:0.81;}
	.st11{fill:#FFFFB0;}
	.st12{fill:none;stroke:#AFAFAC;stroke-width:6.0001;stroke-miterlimit:10.0002;stroke-opacity:0.6;}
</style>
<g id="레이어_1_00000125575975924385932160000011074121760559376309_">
	<g>
		<rect x="0.5" y="0.5" class="st0" width="1919" height="1079"/>
		<path class="st0" d="M1919,1v1078H1V1H1919 M1920,0H0v1080h1920V0L1920,0z"/>
	</g>
</g>
<g id="레이어_2_00000048490622945264918600000014419714501280259242_">
	<path class="st1" d="M1823.28,288.2"/>
	<path class="st2" d="M1131.27,994.67c-0.77-1.83-2.47-3.42-4.47-3.78c-0.15-0.1-0.29-0.22-0.46-0.3
		c-3.97-1.89-8.68-0.71-10.85,3.29c-2.39,4.42,0.28,9.93,4.84,11.53c3.96,1.39,8.46-0.58,10.53-4.15
		C1132.01,999.25,1132.17,996.8,1131.27,994.67z"/>
	<path class="st2" d="M1106.66,1046.37c-14.41-21.41-27.56-43.63-39.39-66.56c-2.95-5.72-11.58-0.67-8.63,5.05
		c11.83,22.94,24.98,45.15,39.39,66.56C1101.6,1056.72,1110.26,1051.72,1106.66,1046.37z"/>
	<path class="st3" d="M1536.18,45.17c4.07-4.97-3.46-11.55-7.55-6.56c-7.15,8.72-17.57,15.08-28.95,16.08
		c-13.64,1.2-22.52-6.69-29.94-17.27c-6.96-9.92-13.68-20.92-25.53-25.53c-8.84-3.44-18.29-3.08-27.47-1.32
		c-18.1,3.47-40.28,14.42-57.57,2.84c-12.01-8.04-17.88-22.99-22.4-36.09c-4.49-13.04-8.67-26.75-17.09-37.92
		c-8.97-11.89-21.5-18.01-36.16-19.33c-13.41-1.2-27.07,0.41-40.14-3.49c-6.16-1.84-7.98,8-1.86,9.83
		c11.84,3.53,24.21,2.67,36.4,3.24c13.94,0.65,26.06,4.84,34.42,16.66c16.63,23.53,15.63,58.46,41.6,75.55
		c18.61,12.24,39.96,4.2,59.6-0.44c8.81-2.08,18.72-3.76,27.35-0.08c12.74,5.43,18.29,20.16,26.99,30
		C1487.04,72.95,1519.23,65.84,1536.18,45.17z"/>
	<path class="st4" d="M545.41,904.52c-6.43,0-6.45,10,0,10C551.85,914.52,551.86,904.52,545.41,904.52z"/>
	<ellipse class="st5" cx="150.76" cy="930.43" rx="209.48" ry="215.77"/>
	<ellipse class="st6" cx="1646.77" cy="893.94" rx="55.24" ry="54.99"/>
	<circle class="st7" cx="360.25" cy="714.66" r="22"/>
	<polygon class="st8" points="599.78,64.36 599.02,-24.08 523.7,19.69 	"/>
	<polygon class="st8" points="1670.93,930.43 1799.72,602.29 2060.3,872.72 	"/>
	<line class="st9" x1="1611.88" y1="675.57" x2="1937.69" y2="1144.4"/>
	<g class="st10">
		<polygon class="st11" points="289.26,976.27 447.27,782.22 629.18,951.17 471.18,1145.22 		"/>
	</g>
	
		<ellipse transform="matrix(0.3765 -0.9264 0.9264 0.3765 1068.3829 1923.2545)" class="st12" cx="1963.05" cy="167.89" rx="169.65" ry="169.44"/>
</g>
</svg>
